PathFileType	4	(X/Y/Z)	C:/Users/opensim2020/Desktop/walking_exp_matlab/subject03_walking09_straight_04.trc																																																																																																																																											
DataRate	CameraRate	NumFrames	NumMarkers	Units	OrigDataRate	OrigDataStartFrame	OrigNumFrames																																																																																																																																							
100	100	4	47	mm	100	3789	353																																																																																																																																							
Frame#	Time	LFHD			RFHD			LBHD			RBHD			C7			T10			CLAV			STRN			RBAK			LSHO			LUPA			LELB			LFRM			LWRA			LWRB			LFIN			RSHO			RUPA			RELB			RFRM			RWRA			RWRB			RFIN			LASI			RASI			LPSI			RPSI			LTHI			LKNE			LTIB			LANK			LHEE			LTOE			RTHI			RKNE			RTIB			RANK			RHEE			RTOE			*39			*40			*41			*42			*43			*44			*45			*46		
		X1	Y1	Z1	X2	Y2	Z2	X3	Y3	Z3	X4	Y4	Z4	X5	Y5	Z5	X6	Y6	Z6	X7	Y7	Z7	X8	Y8	Z8	X9	Y9	Z9	X10	Y10	Z10	X11	Y11	Z11	X12	Y12	Z12	X13	Y13	Z13	X14	Y14	Z14	X15	Y15	Z15	X16	Y16	Z16	X17	Y17	Z17	X18	Y18	Z18	X19	Y19	Z19	X20	Y20	Z20	X21	Y21	Z21	X22	Y22	Z22	X23	Y23	Z23	X24	Y24	Z24	X25	Y25	Z25	X26	Y26	Z26	X27	Y27	Z27	X28	Y28	Z28	X29	Y29	Z29	X30	Y30	Z30	X31	Y31	Z31	X32	Y32	Z32	X33	Y33	Z33	X34	Y34	Z34	X35	Y35	Z35	X36	Y36	Z36	X37	Y37	Z37	X38	Y38	Z38	X39	Y39	Z39	X40	Y40	Z40	X41	Y41	Z41	X42	Y42	Z42	X43	Y43	Z43	X44	Y44	Z44	X45	Y45	Z45	X46	Y46	Z46	X47	Y47	Z47
																																																																																																																																														
45	0.44	-1133.28162	1634.60913	-1492.86401	-1149.94617	1638.09998	-1361.04822	-1255.09167	1576.43628	-1503.48181	-1266.73669	1580.18933	-1373.16113	-1278.88599	1422.99194	-1451.8501	-1305.26123	1110.11304	-1460.6355	-1155.86731	1349.30542	-1435.18311	-1107.19714	1185.63818	-1439.32471	-1340.68591	1245.87085	-1367.3363	-1178.52417	1388.06287	-1594.5321	-1152.95996	1195.64941	-1669.83545	-1124.13	1076.57727	-1683.94458	-1072.48535	957.11731	-1679.29712	-1034.60413	845.4895	-1645.82874	-1048.849	847.427	-1700.0376	-1014.66864	771.0946	-1688.46655	-1222.90979	1367.77966	-1282.36194	-1227.29797	1142.97815	-1216.20435	-1212.4248	1031.05615	-1204.4585	-1200.06812	894.47888	-1201.01941	-1170.17969	797.51648	-1232.98364	-1205.95398	794.27979	-1191.91699	-1186.30359	721.9317	-1199.75	-1124.41235	951.11823	-1566.32129	-1146.34814	946.01782	-1328.27356	-1290.3584	972.12262	-1530.31409	-1303.4187	972.94165	-1381.32642	-1167.62622	647.1701	-1605.50781	-1159.00171	469.7034	-1562.82166	-1212.7915	280.12448	-1566.88293	-1240.98267	72.57583	-1524.47144	-1282.64038	37.0275	-1488.82751	-1089.49487	35.01343	-1497.06091	-1160.23962	648.96594	-1282.79578	-1108.57568	476.34409	-1301.1167	-1239.19189	337.89011	-1303.0199	-1383.75317	179.23409	-1350.06519	-1434.67078	178.27687	-1406.81189	-1300.87048	63.96424	-1357.07043	-1227.77722	1685.97205	-1453.13342	NaN	NaN	NaN	NaN	NaN	NaN	NaN	NaN	NaN	NaN	NaN	NaN	NaN	NaN	NaN	NaN	NaN	NaN	NaN	NaN	NaN
46	0.45	-1126.28662	1634.33032	-1493.52173	-1143.02454	1638.06116	-1361.77234	-1248.17798	1576.32849	-1504.13818	-1259.77478	1580.24426	-1373.74915	-1272.21875	1423.03528	-1452.62817	-1298.98987	1110.20496	-1461.52722	-1149.15186	1349.35022	-1435.45325	-1100.86121	1185.46619	-1439.71204	-1334.401	1245.93286	-1368.11902	-1171.21558	1388.23462	-1594.72803	-1143.70959	1196.36096	-1669.97437	-1113.71582	1077.63135	-1683.83264	-1060.43787	958.96405	-1678.5625	-1021.17432	847.82916	-1644.41443	-1035.10876	849.5296	-1698.77356	-999.9422	773.57068	-1686.73608	-1216.9314	1367.8009	-1282.95093	-1222.47485	1143.15552	-1216.76086	-1207.99463	1031.12378	-1204.85657	-1195.55408	894.55664	-1201.42773	-1165.27881	797.73981	-1233.35876	-1201.39355	794.3335	-1192.64819	-1181.18042	722.10565	-1200.29053	-1118.07678	950.98083	-1566.91724	-1139.91907	946.23889	-1328.82202	-1284.11328	971.76617	-1530.61841	-1297.00952	972.81348	-1381.74512	-1162.45654	646.85114	-1605.6405	-1155.63269	469.29587	-1563.04639	-1210.88306	280.07935	-1566.89514	-1240.81006	72.81351	-1524.46191	-1282.24548	36.66863	-1488.31775	-1089.4342	35.01191	-1497.0675	-1148.48608	650.33972	-1283.04102	-1094.96655	478.01999	-1302.47546	-1222.02368	336.10764	-1304.40662	-1362.94324	173.97272	-1351.0575	-1414.2384	171.20375	-1407.2439	-1275.87097	62.17872	-1359.40576	-1220.56201	1685.44678	-1453.78491	NaN	NaN	NaN	NaN	NaN	NaN	NaN	NaN	NaN	NaN	NaN	NaN	NaN	NaN	NaN	NaN	NaN	NaN	NaN	NaN	NaN
47	0.46	-1119.29407	1633.99866	-1494.18396	-1136.07446	1637.97681	-1362.41602	-1241.25928	1576.18372	-1504.73059	-1252.92517	1580.3396	-1374.35059	-1265.53076	1423.03357	-1453.34448	-1292.70398	1110.24072	-1462.39502	-1142.62439	1349.21216	-1435.78955	-1094.74512	1185.06042	-1440.04175	-1328.29199	1246.14587	-1369.08069	-1163.93774	1388.28943	-1594.82214	-1134.61255	1196.95581	-1670.03564	-1103.297	1078.39722	-1683.59558	-1048.59363	960.6568	-1677.87354	-1007.83197	850.27423	-1643.10413	-1021.54065	851.52094	-1697.42725	-985.45953	776.03967	-1684.99353	-1210.93567	1367.68884	-1283.50098	-1217.10974	1143.0022	-1217.25854	-1203.37354	1031.04102	-1205.26123	-1190.76489	894.52716	-1201.89319	-1159.88904	797.78204	-1233.45862	-1196.63855	794.2312	-1193.29419	-1176.12292	722.18335	-1200.81165	-1111.73962	950.79456	-1567.39893	-1133.64111	946.39386	-1329.24707	-1277.86853	971.41626	-1530.85669	-1290.81506	972.53955	-1382.10693	-1157.59827	646.46405	-1605.78833	-1152.46716	468.91904	-1563.34692	-1209.15771	280.06238	-1566.97693	-1240.38306	72.60829	-1524.16943	-1282.27893	37.12774	-1488.37695	-1089.49927	35.15755	-1497.2699	-1137.75464	651.30713	-1283.50427	-1081.99316	479.78894	-1303.95691	-1204.93835	334.07547	-1305.69043	-1341.6167	168.18021	-1352.13611	-1393.25842	163.65843	-1407.76392	-1250.18518	60.01836	-1361.70007	-1213.44604	1685.44287	-1454.44434	NaN	NaN	NaN	NaN	NaN	NaN	NaN	NaN	NaN	NaN	NaN	NaN	NaN	NaN	NaN	NaN	NaN	NaN	NaN	NaN	NaN
48	0.47	-1112.33679	1633.63916	-1494.76062	-1129.08179	1637.74536	-1362.95776	-1234.4967	1576.08044	-1505.46106	-1246.08777	1580.33228	-1374.89075	-1258.88806	1422.98376	-1453.96313	-1286.35535	1110.1803	-1463.21545	-1136.15552	1348.93298	-1436.01697	-1088.65881	1184.75146	-1440.2981	-1322.08032	1246.10571	-1370.02686	-1156.72754	1388.25842	-1594.97742	-1125.61914	1197.47693	-1670.16687	-1093.34253	1079.34412	-1683.68762	-1036.89258	962.22968	-1677.11487	-994.68768	852.64032	-1641.69763	-1008.21014	853.47919	-1696.02954	-971.25354	778.47565	-1683.17346	-1204.84448	1367.53638	-1284.01758	-1211.7179	1142.76575	-1217.82275	-1198.52405	1030.87634	-1205.63208	-1185.87891	894.32983	-1202.30896	-1154.5647	797.69873	-1233.77502	-1191.55261	794.02478	-1193.77722	-1170.60168	722.0564	-1201.25708	-1105.39185	950.52094	-1567.82324	-1127.46204	946.49316	-1329.50513	-1271.6665	971.10266	-1531.11829	-1284.7124	972.18866	-1382.56604	-1153.06628	646.10645	-1605.98181	-1149.47546	468.47491	-1563.6593	-1207.50952	280.05899	-1567.08179	-1240.27405	72.86774	-1524.25183	-1282.93774	38.36847	-1489.12097	-1089.44739	35.07693	-1497.28333	-1127.15405	652.20245	-1283.81311	-1069.16919	481.53625	-1304.98755	-1188.06042	331.96201	-1306.71399	-1319.59473	161.62921	-1353.0459	-1371.54907	155.39761	-1408.33594	-1223.9574	57.8708	-1363.84949	-1206.41882	1685.39185	-1455.04834	NaN	NaN	NaN	NaN	NaN	NaN	NaN	NaN	NaN	NaN	NaN	NaN	NaN	NaN	NaN	NaN	NaN	NaN	NaN	NaN	NaN
